<svg width="56" height="56" viewBox="0 0 56 56" fill="none" xmlns="http://www.w3.org/2000/svg">
<rect x="4" y="4" width="48" height="48" rx="24" fill="#F4EBFF"/>
<rect x="4" y="4" width="48" height="48" rx="24" stroke="#F9F5FF" stroke-width="8"/>
<g clip-path="url(#clip0_3561_376874)">
<path d="M37 16H19C18.2044 16 17.4413 16.3161 16.8787 16.8787C16.3161 17.4413 16 18.2044 16 19V40H40V19C40 18.2044 39.6839 17.4413 39.1213 16.8787C38.5587 16.3161 37.7956 16 37 16V16ZM38 19V21H31V18H37C37.2652 18 37.5196 18.1054 37.7071 18.2929C37.8946 18.4804 38 18.7348 38 19ZM27 18H29V24H27V18ZM19 18H25V21H18V19C18 18.7348 18.1054 18.4804 18.2929 18.2929C18.4804 18.1054 18.7348 18 19 18ZM18 38V23H25V26H31V23H38V38H18ZM31 34H36V36H31V34Z" fill="#704A9E"/>
</g>
<defs>
<clipPath id="clip0_3561_376874">
<rect width="24" height="24" fill="white" transform="translate(16 16)"/>
</clipPath>
</defs>
</svg>
