<svg width="56" height="56" viewBox="0 0 56 56" fill="none" xmlns="http://www.w3.org/2000/svg">
<rect x="4" y="4" width="48" height="48" rx="24" fill="#F4EBFF"/>
<rect x="4" y="4" width="48" height="48" rx="24" stroke="#F9F5FF" stroke-width="8"/>
<g clip-path="url(#clip0_7738_12334)">
<path d="M36.0001 16H21.0001C20.2045 16 19.4414 16.3161 18.8788 16.8787C18.3162 17.4413 18.0001 18.2044 18.0001 19V37C18.0001 37.7956 18.3162 38.5587 18.8788 39.1213C19.4414 39.6839 20.2045 40 21.0001 40H38.0001V18C38.0001 17.4696 37.7894 16.9609 37.4143 16.5858C37.0393 16.2107 36.5306 16 36.0001 16V16ZM36.0001 34H24.0001V18H36.0001V34ZM21.0001 18H22.0001V34H21.0171C20.6699 34.003 20.3257 34.0663 20.0001 34.187V19C20.0001 18.7348 20.1055 18.4804 20.293 18.2929C20.4806 18.1054 20.7349 18 21.0001 18ZM21.0001 38C20.7363 38 20.4831 37.8958 20.2958 37.7099C20.1085 37.5241 20.0022 37.2718 20.0001 37.008H20.0151C20.0141 36.876 20.0392 36.7451 20.0889 36.6229C20.1387 36.5006 20.2122 36.3894 20.3052 36.2957C20.3981 36.202 20.5087 36.1276 20.6306 36.0769C20.7524 36.0261 20.8831 36 21.0151 36H36.0001V38H21.0001Z" fill="#704A9E"/>
</g>
<defs>
<clipPath id="clip0_7738_12334">
<rect width="24" height="24" fill="white" transform="translate(16 16)"/>
</clipPath>
</defs>
</svg>
