<svg width="56" height="56" viewBox="0 0 56 56" fill="none" xmlns="http://www.w3.org/2000/svg">
<rect x="4" y="4" width="48" height="48" rx="24" fill="#F4EBFF"/>
<rect x="4" y="4" width="48" height="48" rx="24" stroke="#F9F5FF" stroke-width="8"/>
<g clip-path="url(#clip0_3826_80180)">
<path d="M30.96 22.139C30.0629 21.4043 28.9396 21.002 27.78 21H24.771L23.453 16H17.029L18.347 21H16V23H27.78C28.4778 23.0018 29.1535 23.2445 29.693 23.687C31.1057 24.8766 32.2577 26.3449 33.077 28H30.7L27.7 30H16V32H28.3L31.3 30H37.941C37.6926 32.1985 36.644 34.2288 34.9952 35.7041C33.3464 37.1794 31.2125 37.9966 29 38H16V40H29C31.9163 39.9966 34.7122 38.8365 36.7744 36.7744C38.8365 34.7122 39.9966 31.9163 40 29V28H35.287C34.3233 25.7346 32.8412 23.727 30.96 22.139ZM19.625 18H21.912L22.7 21H20.415L19.625 18ZM28 27H16V25H28V27ZM19 36C18.8022 36 18.6089 35.9414 18.4444 35.8315C18.28 35.7216 18.1518 35.5654 18.0761 35.3827C18.0004 35.2 17.9806 34.9989 18.0192 34.8049C18.0578 34.6109 18.153 34.4327 18.2929 34.2929C18.4327 34.153 18.6109 34.0578 18.8049 34.0192C18.9989 33.9806 19.2 34.0004 19.3827 34.0761C19.5654 34.1518 19.7216 34.28 19.8315 34.4444C19.9414 34.6089 20 34.8022 20 35C20 35.2652 19.8946 35.5196 19.7071 35.7071C19.5196 35.8946 19.2652 36 19 36ZM23 36C22.8022 36 22.6089 35.9414 22.4444 35.8315C22.28 35.7216 22.1518 35.5654 22.0761 35.3827C22.0004 35.2 21.9806 34.9989 22.0192 34.8049C22.0578 34.6109 22.153 34.4327 22.2929 34.2929C22.4327 34.153 22.6109 34.0578 22.8049 34.0192C22.9989 33.9806 23.2 34.0004 23.3827 34.0761C23.5654 34.1518 23.7216 34.28 23.8315 34.4444C23.9414 34.6089 24 34.8022 24 35C24 35.2652 23.8946 35.5196 23.7071 35.7071C23.5196 35.8946 23.2652 36 23 36ZM27 36C26.8022 36 26.6089 35.9414 26.4444 35.8315C26.28 35.7216 26.1518 35.5654 26.0761 35.3827C26.0004 35.2 25.9806 34.9989 26.0192 34.8049C26.0578 34.6109 26.153 34.4327 26.2929 34.2929C26.4327 34.153 26.6109 34.0578 26.8049 34.0192C26.9989 33.9806 27.2 34.0004 27.3827 34.0761C27.5654 34.1518 27.7216 34.28 27.8315 34.4444C27.9414 34.6089 28 34.8022 28 35C28 35.2652 27.8946 35.5196 27.7071 35.7071C27.5196 35.8946 27.2652 36 27 36Z" fill="#704A9E"/>
</g>
<defs>
<clipPath id="clip0_3826_80180">
<rect width="24" height="24" fill="white" transform="translate(16 16)"/>
</clipPath>
</defs>
</svg>
