<svg width="56" height="56" viewBox="0 0 56 56" fill="none" xmlns="http://www.w3.org/2000/svg">
<rect x="4" y="4" width="48" height="48" rx="24" fill="#E3D4F7"/>
<rect x="4" y="4" width="48" height="48" rx="24" stroke="#EEEBF2" stroke-width="8"/>
<g clip-path="url(#clip0_2488_128549)">
<path d="M28 18.0001C29.3265 18.0044 30.639 18.2718 31.8615 18.7868C33.084 19.3017 34.1922 20.054 35.122 21.0001H31V23.0001H36.143C36.6354 22.9996 37.1074 22.8037 37.4555 22.4556C37.8037 22.1075 37.9995 21.6354 38 21.1431V16.0001H36V19.0781C34.2775 17.5269 32.142 16.5087 29.8524 16.1469C27.5628 15.785 25.2174 16.0951 23.1005 17.0395C20.9836 17.9838 19.1861 19.5219 17.9258 21.4674C16.6655 23.4128 15.9965 25.6821 16 28.0001H18C18.0029 25.3488 19.0574 22.807 20.9322 20.9322C22.8069 19.0575 25.3487 18.003 28 18.0001Z" fill="#704A9E"/>
<path d="M38 28C38.0029 29.9853 37.4139 31.9265 36.3083 33.5755C35.2027 35.2245 33.6307 36.5065 31.793 37.2578C29.9553 38.0091 27.9354 38.1956 25.9912 37.7934C24.047 37.3913 22.2668 36.4187 20.878 35H25V33H19.857C19.3647 33.0005 18.8926 33.1963 18.5445 33.5445C18.1963 33.8926 18.0005 34.3647 18 34.857V40H20V36.922C21.7225 38.4731 23.858 39.4913 26.1476 39.8532C28.4372 40.215 30.7826 39.905 32.8995 38.9606C35.0164 38.0163 36.814 36.4782 38.0743 34.5327C39.3346 32.5873 40.0035 30.318 40 28H38Z" fill="#704A9E"/>
</g>
<defs>
<clipPath id="clip0_2488_128549">
<rect width="24" height="24" fill="white" transform="translate(16 16)"/>
</clipPath>
</defs>
</svg>
