<svg width="16" height="16" viewBox="0 0 16 16" fill="none" xmlns="http://www.w3.org/2000/svg">
<g clip-path="url(#clip0_2305_3138)">
<path d="M14.6668 2.66667H11.3335V1.33333C11.3335 0.979711 11.193 0.640573 10.943 0.390524C10.6929 0.140476 10.3538 0 10.0002 0L6.00016 0C5.64654 0 5.3074 0.140476 5.05735 0.390524C4.80731 0.640573 4.66683 0.979711 4.66683 1.33333V2.66667H1.3335V4H2.66683V14C2.66683 14.5304 2.87754 15.0391 3.25262 15.4142C3.62769 15.7893 4.1364 16 4.66683 16H11.3335C11.8639 16 12.3726 15.7893 12.7477 15.4142C13.1228 15.0391 13.3335 14.5304 13.3335 14V4H14.6668V2.66667ZM6.00016 1.33333H10.0002V2.66667H6.00016V1.33333ZM12.0002 14C12.0002 14.1768 11.9299 14.3464 11.8049 14.4714C11.6799 14.5964 11.5103 14.6667 11.3335 14.6667H4.66683C4.49002 14.6667 4.32045 14.5964 4.19543 14.4714C4.0704 14.3464 4.00016 14.1768 4.00016 14V4H12.0002V14Z" fill="#374957"/>
<path d="M7.33333 6.66626H6V11.9996H7.33333V6.66626Z" fill="#374957"/>
<path d="M10.0003 6.66626H8.66699V11.9996H10.0003V6.66626Z" fill="#374957"/>
</g>
<defs>
<clipPath id="clip0_2305_3138">
<rect width="16" height="16" fill="white"/>
</clipPath>
</defs>
</svg>
