<svg width="24" height="25" viewBox="0 0 24 25" fill="none" xmlns="http://www.w3.org/2000/svg">
<g clip-path="url(#clip0_543_20098)">
<path d="M24 15.5037C23.9976 17.6247 23.154 19.6581 21.6542 21.1579C20.1545 22.6577 18.121 23.5013 16 23.5037H15.763L18.178 21.0887C19.4175 20.6073 20.4616 19.7273 21.146 18.5873C21.8303 17.4473 22.1161 16.1121 21.9582 14.7918C21.8004 13.4716 21.2079 12.2413 20.274 11.2948C19.3402 10.3483 18.118 9.73931 16.8 9.56369L16.042 9.46369L15.942 8.70569C15.7319 7.20407 14.961 5.8377 13.7844 4.88133C12.6078 3.92496 11.1128 3.44952 9.59988 3.55062C8.08701 3.65171 6.6685 4.32184 5.62962 5.42626C4.59073 6.53067 4.00851 7.98746 4.00002 9.50369C3.99887 10.7878 4.41355 12.0379 5.18202 13.0667L6.06602 14.2587L4.62802 14.6297C3.80278 14.8399 3.08282 15.3444 2.60366 16.0484C2.12449 16.7524 1.91917 17.6072 2.02634 18.452C2.1335 19.2968 2.54577 20.0734 3.18554 20.6354C3.82531 21.1974 4.64845 21.5062 5.50002 21.5037H5.62102L7.62102 23.5037H5.50002C4.27601 23.5052 3.08658 23.0977 2.12073 22.3458C1.15487 21.5939 0.46798 20.5408 0.169193 19.3538C-0.129593 18.1668 -0.0231397 16.914 0.471641 15.7945C0.966421 14.6749 1.82115 13.7528 2.90002 13.1747C2.30785 12.0417 1.99904 10.7821 2.00002 9.50369C2.00627 7.54247 2.73273 5.65188 4.04138 4.19111C5.35003 2.73034 7.14968 1.80118 9.09841 1.58016C11.0471 1.35913 13.0092 1.86165 14.6117 2.99224C16.2143 4.12282 17.3457 5.80269 17.791 7.71269C19.5526 8.12139 21.1245 9.11331 22.2515 10.5275C23.3786 11.9418 23.9947 13.6953 24 15.5037ZM13.813 22.6247L19.467 16.9707L18.053 15.5567L12.4 21.2107C12.2097 21.3927 11.9564 21.4943 11.693 21.4943C11.4296 21.4943 11.1764 21.3927 10.986 21.2107L7.60002 17.8267L6.18702 19.2407L9.57102 22.6247C10.1336 23.1871 10.8965 23.503 11.692 23.503C12.4875 23.503 13.2504 23.1871 13.813 22.6247Z" fill="#374957"/>
</g>
<defs>
<clipPath id="clip0_543_20098">
<rect width="24" height="24" fill="white" transform="translate(0 0.503662)"/>
</clipPath>
</defs>
</svg>
