<svg width="20" height="20" viewBox="0 0 20 20" fill="none" xmlns="http://www.w3.org/2000/svg">
<g clip-path="url(#clip0_686_6977)">
<path d="M5.83342 6.66739V5.83406C5.83316 4.91023 6.13994 4.01251 6.70551 3.28204C7.27109 2.55157 8.06339 2.02977 8.95786 1.79869C9.85232 1.56761 10.7982 1.64035 11.6468 2.00546C12.4955 2.37058 13.1987 3.00737 13.6459 3.81573L15.1034 3.00656C14.477 1.87516 13.4924 0.983993 12.3043 0.473155C11.1162 -0.0376833 9.79205 -0.139231 8.53997 0.184473C7.2879 0.508178 6.17889 1.23878 5.38727 2.26144C4.59565 3.28409 4.16632 4.54082 4.16675 5.83406V6.66739H1.66675V17.5007C1.66675 18.1638 1.93014 18.7997 2.39898 19.2685C2.86782 19.7373 3.50371 20.0007 4.16675 20.0007H15.8334C16.4965 20.0007 17.1323 19.7373 17.6012 19.2685C18.07 18.7997 18.3334 18.1638 18.3334 17.5007V6.66739H5.83342ZM16.6667 17.5007C16.6667 17.7217 16.579 17.9337 16.4227 18.09C16.2664 18.2463 16.0544 18.3341 15.8334 18.3341H4.16675C3.94573 18.3341 3.73377 18.2463 3.57749 18.09C3.42121 17.9337 3.33341 17.7217 3.33341 17.5007V8.33406H16.6667V17.5007Z" fill="#704A9E"/>
<path d="M10.8334 11.6672H9.16675V15.0006H10.8334V11.6672Z" fill="#704A9E"/>
</g>
<defs>
<clipPath id="clip0_686_6977">
<rect width="20" height="20" fill="white"/>
</clipPath>
</defs>
</svg>
