<svg width="20" height="20" viewBox="0 0 20 20" fill="none" xmlns="http://www.w3.org/2000/svg">
<g clip-path="url(#clip0_10152_1697)">
<path d="M20 20H2.5C1.83696 20 1.20107 19.7366 0.732233 19.2678C0.263392 18.7989 0 18.163 0 17.5L0 0H1.66667V17.5C1.66667 17.721 1.75446 17.933 1.91074 18.0893C2.06702 18.2455 2.27899 18.3333 2.5 18.3333H20V20Z" fill="#667085"/>
<path d="M13.3331 9.16699H11.6664V16.667H13.3331V9.16699Z" fill="#667085"/>
<path d="M6.66666 9.16699H5V16.667H6.66666V9.16699Z" fill="#667085"/>
<path d="M16.6667 5H15V16.6667H16.6667V5Z" fill="#667085"/>
<path d="M10.0003 5H8.33359V16.6667H10.0003V5Z" fill="#667085"/>
</g>
<defs>
<clipPath id="clip0_10152_1697">
<rect width="20" height="20" fill="white"/>
</clipPath>
</defs>
</svg>
