<svg width="20" height="20" viewBox="0 0 20 20" fill="none" xmlns="http://www.w3.org/2000/svg">
<path d="M20 4.93083L17.25 6.52167L18.355 9.87917L17.73 10.315L15.0125 8.21417L12.2833 10.3242L11.6825 9.87167L12.7692 6.475L10 4.935V4.16667H13.625L14.6067 0.416667H15.415L16.395 4.16667H20V4.93083ZM4.16667 4.16667V5.83333H8.33333V4.16667H4.16667ZM10 7.5H4.16667V9.16667H10V7.5ZM4.16667 12.5H10V10.8333H4.16667V12.5ZM15.8333 15H18.3333V17.5C18.3333 18.8783 17.2117 20 15.8333 20H2.91667C1.30833 20 0 18.6917 0 17.0833V2.5C0 1.12167 1.12167 0 2.5 0H11.775C11.0125 0.4225 10.345 0.990833 9.80333 1.66667H2.5C2.04083 1.66667 1.66667 2.04 1.66667 2.5V17.0833C1.66667 17.7725 2.2275 18.3333 2.91667 18.3333C3.60583 18.3333 4.16667 17.7725 4.16667 17.0833V15H14.1667V12.4442C14.4392 12.48 14.7175 12.5 15 12.5C15.2825 12.5 15.56 12.4767 15.8333 12.4425V15ZM16.6667 16.6667H5.83333V17.0833C5.83333 17.53 5.73167 17.9542 5.55167 18.3333H15.8333C16.2925 18.3333 16.6667 17.96 16.6667 17.5V16.6667Z" fill="#9477B6"/>
</svg>
