<svg width="24" height="25" viewBox="0 0 24 25" fill="none" xmlns="http://www.w3.org/2000/svg">
<g clip-path="url(#clip0_543_20403)">
<path d="M2 21.5037V3.50366C2 3.23845 2.10536 2.98409 2.29289 2.79656C2.48043 2.60902 2.73478 2.50366 3 2.50366H8V0.503662H3C2.20435 0.503662 1.44129 0.819733 0.87868 1.38234C0.31607 1.94495 0 2.70801 0 3.50366L0 21.5037C0 22.2993 0.31607 23.0624 0.87868 23.625C1.44129 24.1876 2.20435 24.5037 3 24.5037H8V22.5037H3C2.73478 22.5037 2.48043 22.3983 2.29289 22.2108C2.10536 22.0232 2 21.7689 2 21.5037Z" fill="#374957"/>
<path d="M23.1226 10.3821L18.5366 5.79605L17.1226 7.21005L21.3866 11.4741L4.99963 11.5031V13.5031L21.4426 13.4741L17.1206 17.7961L18.5346 19.2101L23.1206 14.6241C23.6833 14.0617 23.9996 13.299 24 12.5035C24.0004 11.708 23.6848 10.9449 23.1226 10.3821Z" fill="#374957"/>
</g>
<defs>
<clipPath id="clip0_543_20403">
<rect width="24" height="24" fill="white" transform="translate(0 0.503662)"/>
</clipPath>
</defs>
</svg>
