<svg width="24" height="25" viewBox="0 0 24 25" fill="none" xmlns="http://www.w3.org/2000/svg">
<g clip-path="url(#clip0_543_20401)">
<path d="M2 21.5037V3.50366C2 3.23845 2.10536 2.98409 2.29289 2.79656C2.48043 2.60902 2.73478 2.50366 3 2.50366H8V0.503662H3C2.20435 0.503662 1.44129 0.819733 0.87868 1.38234C0.31607 1.94495 0 2.70801 0 3.50366L0 21.5037C0 22.2993 0.31607 23.0624 0.87868 23.625C1.44129 24.1876 2.20435 24.5037 3 24.5037H8V22.5037H3C2.73478 22.5037 2.48043 22.3983 2.29289 22.2108C2.10536 22.0232 2 21.7689 2 21.5037Z" fill="#374957"/>
<path d="M24 13.5031V11.5031L7.55596 11.5341L11.879 7.21005L10.463 5.79605L5.87696 10.3821C5.31454 10.9446 4.9986 11.7076 4.9986 12.5031C4.9986 13.2985 5.31454 14.0615 5.87696 14.6241L10.463 19.2101L11.877 17.7961L7.61396 13.5331L24 13.5031Z" fill="#374957"/>
</g>
<defs>
<clipPath id="clip0_543_20401">
<rect width="24" height="24" fill="white" transform="translate(0 0.503662)"/>
</clipPath>
</defs>
</svg>
