<svg width="20" height="20" viewBox="0 0 20 20" fill="none" xmlns="http://www.w3.org/2000/svg">
<g clip-path="url(#clip0_6302_781)">
<path d="M10.027 15.8333C10.3554 15.8339 10.6807 15.7695 10.9842 15.644C11.2876 15.5184 11.5633 15.3341 11.7953 15.1017L15.0612 11.8333L13.8828 10.6583L10.8553 13.6867L10.8337 0H9.16699L9.18865 13.6733L6.17199 10.6567L4.99365 11.8333L8.25949 15.0992C8.49122 15.3319 8.76666 15.5166 9.06999 15.6426C9.37331 15.7686 9.69854 15.8334 10.027 15.8333Z" fill="#9477B6"/>
<path d="M18.3333 13.3336V17.5003C18.3333 17.7213 18.2455 17.9333 18.0893 18.0895C17.933 18.2458 17.721 18.3336 17.5 18.3336H2.5C2.27899 18.3336 2.06702 18.2458 1.91074 18.0895C1.75446 17.9333 1.66667 17.7213 1.66667 17.5003V13.3336H0V17.5003C0 18.1633 0.263392 18.7992 0.732233 19.268C1.20107 19.7369 1.83696 20.0003 2.5 20.0003H17.5C18.163 20.0003 18.7989 19.7369 19.2678 19.268C19.7366 18.7992 20 18.1633 20 17.5003V13.3336H18.3333Z" fill="#9477B6"/>
</g>
<defs>
<clipPath id="clip0_6302_781">
<rect width="20" height="20" fill="white"/>
</clipPath>
</defs>
</svg>
