<svg width="24" height="25" viewBox="0 0 24 25" fill="none" xmlns="http://www.w3.org/2000/svg">
<g clip-path="url(#clip0_543_20066)">
<path d="M21 2.50366H18V0.503662H16V2.50366H8V0.503662H6V2.50366H3C2.20435 2.50366 1.44129 2.81973 0.87868 3.38234C0.31607 3.94495 0 4.70801 0 5.50366L0 24.5037H24V5.50366C24 4.70801 23.6839 3.94495 23.1213 3.38234C22.5587 2.81973 21.7956 2.50366 21 2.50366ZM2 5.50366C2 5.23845 2.10536 4.98409 2.29289 4.79656C2.48043 4.60902 2.73478 4.50366 3 4.50366H21C21.2652 4.50366 21.5196 4.60902 21.7071 4.79656C21.8946 4.98409 22 5.23845 22 5.50366V8.50366H2V5.50366ZM2 22.5037V10.5037H22V22.5037H2Z" fill="#374957"/>
<path d="M17 13.5038H15V15.5038H17V13.5038Z" fill="#374957"/>
<path d="M13.0002 13.5038H11.0002V15.5038H13.0002V13.5038Z" fill="#374957"/>
<path d="M8.99981 13.5038H6.99982V15.5038H8.99981V13.5038Z" fill="#374957"/>
<path d="M17 17.5038H15V19.5038H17V17.5038Z" fill="#374957"/>
<path d="M13.0002 17.5038H11.0002V19.5038H13.0002V17.5038Z" fill="#374957"/>
<path d="M8.99981 17.5038H6.99982V19.5038H8.99981V17.5038Z" fill="#374957"/>
</g>
<defs>
<clipPath id="clip0_543_20066">
<rect width="24" height="24" fill="white" transform="translate(0 0.503662)"/>
</clipPath>
</defs>
</svg>
