<svg width="24" height="25" viewBox="0 0 24 25" fill="none" xmlns="http://www.w3.org/2000/svg">
<g clip-path="url(#clip0_543_20132)">
<path d="M15.293 7.79669L12 11.0897L8.70703 7.79669L7.29303 9.21069L10.586 12.5037L7.29303 15.7967L8.70703 17.2107L12 13.9177L15.293 17.2107L16.707 15.7967L13.414 12.5037L16.707 9.21069L15.293 7.79669Z" fill="#374957"/>
<path d="M12 0.503662C9.62663 0.503662 7.30655 1.20745 5.33316 2.52603C3.35977 3.8446 1.8217 5.71875 0.913451 7.91146C0.00519943 10.1042 -0.232441 12.517 0.230582 14.8447C0.693605 17.1725 1.83649 19.3107 3.51472 20.9889C5.19295 22.6672 7.33115 23.8101 9.65892 24.2731C11.9867 24.7361 14.3995 24.4985 16.5922 23.5902C18.7849 22.682 20.6591 21.1439 21.9776 19.1705C23.2962 17.1971 24 14.877 24 12.5037C23.9966 9.32212 22.7312 6.27187 20.4815 4.02218C18.2318 1.77249 15.1815 0.507103 12 0.503662V0.503662ZM12 22.5037C10.0222 22.5037 8.08879 21.9172 6.4443 20.8184C4.79981 19.7195 3.51809 18.1578 2.76121 16.3305C2.00433 14.5032 1.8063 12.4926 2.19215 10.5528C2.578 8.61295 3.53041 6.83112 4.92894 5.43259C6.32746 4.03407 8.10929 3.08166 10.0491 2.69581C11.9889 2.30996 13.9996 2.50799 15.8268 3.26487C17.6541 4.02174 19.2159 5.30347 20.3147 6.94796C21.4135 8.59245 22 10.5259 22 12.5037C21.9971 15.1549 20.9426 17.6968 19.0679 19.5715C17.1931 21.4462 14.6513 22.5008 12 22.5037Z" fill="#374957"/>
</g>
<defs>
<clipPath id="clip0_543_20132">
<rect width="24" height="24" fill="white" transform="translate(0 0.503662)"/>
</clipPath>
</defs>
</svg>
