<svg width="24" height="25" viewBox="0 0 24 25" fill="none" xmlns="http://www.w3.org/2000/svg">
<g clip-path="url(#clip0_543_18109)">
<path d="M24 3.50366C24 2.70801 23.6839 1.94495 23.1213 1.38234C22.5587 0.819733 21.7956 0.503662 21 0.503662L3 0.503662C2.20435 0.503662 1.44129 0.819733 0.87868 1.38234C0.31607 1.94495 0 2.70801 0 3.50366L0 6.50366C0.00260366 7.24406 0.280648 7.957 0.78 8.50366C0.280648 9.05033 0.00260366 9.76326 0 10.5037L0 13.5037C0.00260366 14.2441 0.280648 14.957 0.78 15.5037C0.280648 16.0503 0.00260366 16.7633 0 17.5037L0 23.5037H24V17.5037C23.9974 16.7633 23.7194 16.0503 23.22 15.5037C23.7194 14.957 23.9974 14.2441 24 13.5037V10.5037C23.9974 9.76326 23.7194 9.05033 23.22 8.50366C23.7194 7.957 23.9974 7.24406 24 6.50366V3.50366ZM2 3.50366C2 3.23845 2.10536 2.98409 2.29289 2.79656C2.48043 2.60902 2.73478 2.50366 3 2.50366H5V4.50366H7V2.50366H9V4.50366H11V2.50366H21C21.2652 2.50366 21.5196 2.60902 21.7071 2.79656C21.8946 2.98409 22 3.23845 22 3.50366V6.50366C22 6.76888 21.8946 7.02323 21.7071 7.21077C21.5196 7.3983 21.2652 7.50366 21 7.50366H3C2.73478 7.50366 2.48043 7.3983 2.29289 7.21077C2.10536 7.02323 2 6.76888 2 6.50366V3.50366ZM22 10.5037V13.5037C22 13.7689 21.8946 14.0232 21.7071 14.2108C21.5196 14.3983 21.2652 14.5037 21 14.5037H3C2.73478 14.5037 2.48043 14.3983 2.29289 14.2108C2.10536 14.0232 2 13.7689 2 13.5037V10.5037C2 10.2384 2.10536 9.98409 2.29289 9.79656C2.48043 9.60902 2.73478 9.50366 3 9.50366H5V11.5037H7V9.50366H9V11.5037H11V9.50366H21C21.2652 9.50366 21.5196 9.60902 21.7071 9.79656C21.8946 9.98409 22 10.2384 22 10.5037ZM22 21.5037H2V17.5037C2 17.2384 2.10536 16.9841 2.29289 16.7966C2.48043 16.609 2.73478 16.5037 3 16.5037H5V18.5037H7V16.5037H9V18.5037H11V16.5037H21C21.2652 16.5037 21.5196 16.609 21.7071 16.7966C21.8946 16.9841 22 17.2384 22 17.5037V21.5037Z" fill="#374957"/>
</g>
<defs>
<clipPath id="clip0_543_18109">
<rect width="24" height="24" fill="white" transform="translate(0 0.503662)"/>
</clipPath>
</defs>
</svg>
