<svg width="20" height="20" viewBox="0 0 20 20" fill="none" xmlns="http://www.w3.org/2000/svg">
<path d="M18.3337 3.33333H14.167V1.66667C14.167 1.22464 13.9914 0.800716 13.6788 0.488155C13.3663 0.175595 12.9424 0 12.5003 0L7.50033 0C7.0583 0 6.63437 0.175595 6.32181 0.488155C6.00925 0.800716 5.83366 1.22464 5.83366 1.66667V3.33333H1.66699V5H3.33366V17.5C3.33366 18.163 3.59705 18.7989 4.06589 19.2678C4.53473 19.7366 5.17062 20 5.83366 20H14.167C14.83 20 15.4659 19.7366 15.9348 19.2678C16.4036 18.7989 16.667 18.163 16.667 17.5V5H18.3337V3.33333ZM7.50033 1.66667H12.5003V3.33333H7.50033V1.66667ZM15.0003 17.5C15.0003 17.721 14.9125 17.933 14.7562 18.0893C14.6 18.2455 14.388 18.3333 14.167 18.3333H5.83366C5.61265 18.3333 5.40068 18.2455 5.2444 18.0893C5.08812 17.933 5.00033 17.721 5.00033 17.5V5H15.0003V17.5Z" fill="#704A9E"/>
<path d="M9.16666 8.33276H7.5V14.9994H9.16666V8.33276Z" fill="#704A9E"/>
<path d="M12.5004 8.33276H10.8337V14.9994H12.5004V8.33276Z" fill="#704A9E"/>
</svg>
