<svg width="20" height="20" viewBox="0 0 20 20" fill="none" xmlns="http://www.w3.org/2000/svg">
<g clip-path="url(#clip0_7804_4762)">
<path d="M4.28364e-08 18.3334H20V20.0001H4.28364e-08V18.3334ZM20 6.59089V8.33339H17.5V15.0001H19.1667V16.6667H0.833333V15.0001H2.5V8.33339H4.28364e-08V6.59089C-8.30872e-05 6.14176 0.120829 5.7009 0.350027 5.31465C0.579225 4.9284 0.908244 4.61102 1.3025 4.39589L8.8025 0.305056C9.16965 0.104106 9.58146 -0.0012207 10 -0.0012207C10.4185 -0.0012207 10.8304 0.104106 11.1975 0.305056L18.6975 4.39589C19.0918 4.61102 19.4208 4.9284 19.65 5.31465C19.8792 5.7009 20.0001 6.14176 20 6.59089ZM4.16667 15.0001H6.66667V8.33339H4.16667V15.0001ZM8.33333 8.33339V15.0001H11.6667V8.33339H8.33333ZM15.8333 8.33339H13.3333V15.0001H15.8333V8.33339ZM18.3333 6.59089C18.3334 6.44118 18.2931 6.29423 18.2167 6.16548C18.1403 6.03673 18.0306 5.93093 17.8992 5.85922L10.3992 1.76839C10.2767 1.70158 10.1395 1.66657 10 1.66657C9.86052 1.66657 9.72327 1.70158 9.60083 1.76839L2.10083 5.85922C1.96941 5.93093 1.85974 6.03673 1.78334 6.16548C1.70694 6.29423 1.66664 6.44118 1.66667 6.59089V6.66672H18.3333V6.59089Z" fill="#9477B6"/>
</g>
<defs>
<clipPath id="clip0_7804_4762">
<rect width="20" height="20" fill="white"/>
</clipPath>
</defs>
</svg>
