<svg width="18" height="20" viewBox="0 0 18 20" fill="none" xmlns="http://www.w3.org/2000/svg">
<path d="M11.0118 0H3.16678C2.50374 0 1.86785 0.263392 1.39901 0.732233C0.930171 1.20107 0.666779 1.83696 0.666779 2.5V20H17.3334V6.32167L11.0118 0ZM11.5001 2.845L14.4884 5.83333H11.5001V2.845ZM2.33345 18.3333V2.5C2.33345 2.27899 2.42124 2.06702 2.57752 1.91074C2.7338 1.75446 2.94577 1.66667 3.16678 1.66667H9.83345V7.5H15.6668V18.3333H2.33345ZM11.7443 10.935L12.9226 12.1133L9.93428 15.1008C9.70213 15.333 9.42651 15.5172 9.12317 15.6429C8.81983 15.7685 8.4947 15.8332 8.16636 15.8332C7.83802 15.8332 7.5129 15.7685 7.20956 15.6429C6.90621 15.5172 6.6306 15.333 6.39845 15.1008L5.07761 13.78L6.25595 12.6017L7.57761 13.9225C7.73625 14.0742 7.94729 14.1589 8.16678 14.1589C8.38627 14.1589 8.59731 14.0742 8.75595 13.9225L11.7443 10.935Z" fill="#667085"/>
</svg>
