<svg width="19" height="18" viewBox="0 0 19 18" fill="none" xmlns="http://www.w3.org/2000/svg">
<g clip-path="url(#clip0_11109_1504)">
<path d="M8.75045 17.9775C6.56838 17.9775 4.47568 17.1106 2.93273 15.5677C1.38977 14.0247 0.522949 11.932 0.522949 9.74996C0.522949 7.56789 1.38977 5.4752 2.93273 3.93224C4.47568 2.38928 6.56838 1.52246 8.75045 1.52246H9.50045L9.5102 2.27246L9.50045 8.99996H16.9779V9.74996C16.9756 11.9313 16.108 14.0226 14.5655 15.565C13.0231 17.1075 10.9318 17.9751 8.75045 17.9775ZM8.00945 3.06371C6.75017 3.20339 5.55594 3.69583 4.56421 4.48435C3.57249 5.27288 2.8236 6.32542 2.40373 7.52083C1.98387 8.71624 1.91012 10.0059 2.19096 11.2414C2.47179 12.4769 3.09581 13.6079 3.99117 14.5044C4.88653 15.4008 6.01683 16.0262 7.25197 16.3085C8.48711 16.5909 9.77688 16.5187 10.9728 16.1003C12.1687 15.6819 13.2222 14.9342 14.0119 13.9435C14.8016 12.9527 15.2955 11.7591 15.4367 10.5H8.00045L8.00945 3.06371Z" fill="#EEEBF2"/>
<path d="M12.5142 1.71613C13.5444 1.98566 14.4843 2.52452 15.2375 3.27739C15.9906 4.03026 16.5298 4.97 16.7997 6.00013H12.5142V1.71613ZM11.0142 0.0256348V7.50013H18.4902C18.4805 5.52049 17.6897 3.62471 16.2897 2.22501C14.8897 0.82532 12.9938 0.0349017 11.0142 0.0256348Z" fill="#EEEBF2"/>
</g>
<defs>
<clipPath id="clip0_11109_1504">
<rect width="18" height="18" fill="white" transform="translate(0.5)"/>
</clipPath>
</defs>
</svg>
