<svg width="24" height="25" viewBox="0 0 24 25" fill="none" xmlns="http://www.w3.org/2000/svg">
<g clip-path="url(#clip0_543_22548)">
<path d="M19.9998 0.503662H2.99983V3.50366H0.999832V5.50366H2.99983V7.50366H0.999832V9.50366H2.99983V11.5037H0.999832V13.5037H2.99983V15.5037H0.999832V17.5037H2.99983V19.5037H0.999832V21.5037H2.99983V24.5037H19.9998C20.7955 24.5037 21.5585 24.1876 22.1212 23.625C22.6838 23.0624 22.9998 22.2993 22.9998 21.5037V3.50366C22.9998 2.70801 22.6838 1.94495 22.1212 1.38234C21.5585 0.819733 20.7955 0.503662 19.9998 0.503662V0.503662ZM20.9998 21.5037C20.9998 21.7689 20.8945 22.0232 20.7069 22.2108C20.5194 22.3983 20.265 22.5037 19.9998 22.5037H4.99983V2.50366H19.9998C20.265 2.50366 20.5194 2.60902 20.7069 2.79656C20.8945 2.98409 20.9998 3.23845 20.9998 3.50366V21.5037ZM12.9998 12.5037C13.5932 12.5037 14.1732 12.3277 14.6665 11.9981C15.1599 11.6684 15.5444 11.1999 15.7715 10.6517C15.9985 10.1035 16.0579 9.50033 15.9422 8.91839C15.8264 8.33645 15.5407 7.8019 15.1212 7.38234C14.7016 6.96278 14.167 6.67706 13.5851 6.56131C13.0032 6.44555 12.4 6.50496 11.8518 6.73202C11.3036 6.95909 10.8351 7.3436 10.5054 7.83695C10.1758 8.3303 9.99983 8.91032 9.99983 9.50366C9.99983 10.2993 10.3159 11.0624 10.8785 11.625C11.4411 12.1876 12.2042 12.5037 12.9998 12.5037ZM17.9998 16.5037V18.5037H15.9998V16.5037C15.9998 16.2384 15.8945 15.9841 15.7069 15.7966C15.5194 15.609 15.265 15.5037 14.9998 15.5037H10.9998C10.7346 15.5037 10.4803 15.609 10.2927 15.7966C10.1052 15.9841 9.99983 16.2384 9.99983 16.5037V18.5037H7.99983V16.5037C7.99983 15.708 8.3159 14.945 8.87851 14.3823C9.44112 13.8197 10.2042 13.5037 10.9998 13.5037H14.9998C15.7955 13.5037 16.5585 13.8197 17.1212 14.3823C17.6838 14.945 17.9998 15.708 17.9998 16.5037Z" fill="#374957"/>
</g>
<defs>
<clipPath id="clip0_543_22548">
<rect width="24" height="24" fill="white" transform="translate(0 0.503662)"/>
</clipPath>
</defs>
</svg>
