<svg width="20" height="20" viewBox="0 0 20 20" fill="none" xmlns="http://www.w3.org/2000/svg">
<g id="fi-rs-map" clip-path="url(#clip0_8852_37653)">
<path id="Vector" d="M18.2225 1.34353L14.5958 0.129367C14.1133 -0.0344923 13.5919 -0.0446825 13.1033 0.100201L7.115 1.74353L3.4625 0.194367C3.08269 0.0359264 2.66964 -0.0263019 2.26 0.0132051C1.85037 0.0527121 1.45682 0.192733 1.11429 0.42084C0.771758 0.648947 0.490835 0.958086 0.296452 1.32082C0.10207 1.68355 0.000239994 2.08867 0 2.5002L0 18.1285L6.65167 20.0294L13.3358 18.3627L20.0025 19.986V3.73603C20.0022 3.19895 19.8289 2.67624 19.5083 2.24533C19.1877 1.81442 18.7368 1.49822 18.2225 1.34353ZM12.5 1.98687V16.8494L7.5 18.0994V3.3102L12.5 1.98687ZM1.66667 2.5002C1.66695 2.36298 1.70112 2.22794 1.76614 2.1071C1.83116 1.98625 1.92501 1.88333 2.03937 1.80748C2.15372 1.73163 2.28504 1.68519 2.42166 1.67229C2.55828 1.65939 2.69597 1.68043 2.8225 1.73353L5.83333 2.98437V18.0619L1.66667 16.8719V2.5002ZM18.3333 17.8585L14.1667 16.8435V1.74353L17.7292 2.9352C17.9032 2.98497 18.0563 3.09004 18.1653 3.23452C18.2743 3.37901 18.3333 3.55505 18.3333 3.73603V17.8585Z" fill="#9477B6"/>
</g>
<defs>
<clipPath id="clip0_8852_37653">
<rect width="20" height="20" fill="white"/>
</clipPath>
</defs>
</svg>
