<svg width="18" height="18" viewBox="0 0 18 18" fill="none" xmlns="http://www.w3.org/2000/svg">
<path d="M1.08277 5.00162C0.83164 5.07337 0.603596 5.20946 0.421205 5.39641C0.238814 5.58336 0.108398 5.81469 0.042862 6.06752C-0.0226744 6.32034 -0.0210597 6.5859 0.0475463 6.83791C0.116152 7.08992 0.249372 7.31965 0.434022 7.50437L2.99302 10.0604V14.9999H7.93777L10.514 17.5724C10.6523 17.7118 10.8168 17.8226 10.998 17.8983C11.1792 17.9739 11.3736 18.0131 11.57 18.0134C11.6991 18.0131 11.8276 17.9965 11.9525 17.9639C12.2052 17.9002 12.4367 17.7711 12.6237 17.5895C12.8107 17.408 12.9465 17.1804 13.0175 16.9296L17.993 0.015625L1.08277 5.00162ZM1.49977 6.44387L14.2708 2.67887L4.49452 12.4394V9.43936L1.49977 6.44387ZM11.5798 16.5119L8.55952 13.4999H5.55952L15.3343 3.73337L11.5798 16.5119Z" fill="#EEEBF2"/>
</svg>
