<svg width="16" height="16" viewBox="0 0 16 16" fill="none" xmlns="http://www.w3.org/2000/svg">
<path d="M0.962627 4.44579C0.739398 4.50957 0.536693 4.63054 0.374567 4.79671C0.212442 4.96289 0.0965169 5.16852 0.0382624 5.39325C-0.0199922 5.61799 -0.018557 5.85404 0.0424261 6.07805C0.103409 6.30206 0.221826 6.50626 0.38596 6.67045L2.66063 8.94245V13.3331H7.05596L9.34596 15.6198C9.46887 15.7437 9.61508 15.8422 9.77617 15.9095C9.93726 15.9767 10.1101 16.0115 10.2846 16.0118C10.3994 16.0116 10.5136 15.9968 10.6246 15.9678C10.8493 15.9112 11.055 15.7964 11.2212 15.635C11.3874 15.4737 11.5082 15.2713 11.5713 15.0484L15.994 0.0137939L0.962627 4.44579ZM1.33329 5.72779L12.6853 2.38112L3.99529 11.0571V8.39045L1.33329 5.72779ZM10.2933 14.6771L7.60863 11.9998H4.94196L13.6306 3.31846L10.2933 14.6771Z" fill="#667085"/>
</svg>
