<svg width="20" height="20" viewBox="0 0 20 20" fill="none" xmlns="http://www.w3.org/2000/svg">
<g clip-path="url(#clip0_1320_33065)">
<path d="M12.5004 20H7.50043V17.0725C6.63148 16.7651 5.82664 16.3001 5.12627 15.7008L2.5896 17.1667L0.0895996 12.8333L2.62543 11.3708C2.45886 10.4645 2.45886 9.53546 2.62543 8.62917L0.0895996 7.16667L2.5896 2.83333L5.12627 4.29917C5.82664 3.69994 6.63148 3.23495 7.50043 2.9275V0H12.5004V2.9275C13.3694 3.23495 14.1742 3.69994 14.8746 4.29917L17.4113 2.83333L19.9113 7.16667L17.3754 8.62917C17.542 9.53546 17.542 10.4645 17.3754 11.3708L19.9113 12.8333L17.4113 17.1667L14.8746 15.7017C14.1742 16.3006 13.3693 16.7653 12.5004 17.0725V20ZM9.1671 18.3333H10.8338V15.8108L11.4596 15.6492C12.4863 15.3832 13.4208 14.8418 14.1621 14.0833L14.6146 13.6225L16.8004 14.885L17.6338 13.4417L15.4504 12.1808L15.6221 11.5592C15.9043 10.5366 15.9043 9.45672 15.6221 8.43417L15.4504 7.8125L17.6338 6.55167L16.8004 5.10833L14.6146 6.37417L14.1621 5.91667C13.4204 5.15945 12.4859 4.61918 11.4596 4.35417L10.8338 4.18917V1.66667H9.1671V4.18917L8.54127 4.35083C7.51459 4.61679 6.5801 5.15824 5.83877 5.91667L5.38627 6.3775L3.20043 5.11167L2.3671 6.555L4.55043 7.81583L4.37877 8.4375C4.09656 9.46005 4.09656 10.5399 4.37877 11.5625L4.55043 12.1842L2.3671 13.445L3.20043 14.8883L5.38627 13.6258L5.83877 14.0867C6.58051 14.8439 7.51495 15.3841 8.54127 15.6492L9.1671 15.8108V18.3333ZM10.0004 13.3333C9.34116 13.3333 8.6967 13.1378 8.14853 12.7716C7.60037 12.4053 7.17313 11.8847 6.92083 11.2756C6.66854 10.6665 6.60253 9.9963 6.73115 9.3497C6.85977 8.7031 7.17724 8.10915 7.64341 7.64298C8.10959 7.1768 8.70353 6.85933 9.35013 6.73072C9.99674 6.6021 10.667 6.66811 11.276 6.9204C11.8851 7.17269 12.4057 7.59994 12.772 8.1481C13.1383 8.69626 13.3338 9.34073 13.3338 10C13.3338 10.8841 12.9826 11.7319 12.3575 12.357C11.7323 12.9821 10.8845 13.3333 10.0004 13.3333ZM10.0004 8.33333C9.6708 8.33333 9.34857 8.43108 9.07448 8.61422C8.8004 8.79735 8.58678 9.05765 8.46063 9.36219C8.33449 9.66674 8.30148 10.0018 8.36579 10.3252C8.4301 10.6485 8.58883 10.9454 8.82192 11.1785C9.05501 11.4116 9.35198 11.5703 9.67528 11.6346C9.99858 11.699 10.3337 11.6659 10.6382 11.5398C10.9428 11.4137 11.2031 11.2 11.3862 10.926C11.5694 10.6519 11.6671 10.3296 11.6671 10C11.6671 9.55797 11.4915 9.13405 11.1789 8.82149C10.8664 8.50893 10.4425 8.33333 10.0004 8.33333Z" fill="#667085"/>
</g>
<defs>
<clipPath id="clip0_1320_33065">
<rect width="20" height="20" fill="white"/>
</clipPath>
</defs>
</svg>
