<svg width="19" height="18" viewBox="0 0 19 18" fill="none" xmlns="http://www.w3.org/2000/svg">
<g clip-path="url(#clip0_11109_1596)">
<path d="M17 6V6.7695C16.3547 6.27315 15.5641 6.00276 14.75 6C13.7554 6 12.8016 6.39509 12.0983 7.09835C11.3951 7.80161 11 8.75544 11 9.75C11 10.7446 11.3951 11.6984 12.0983 12.4017C12.8016 13.1049 13.7554 13.5 14.75 13.5C15.5641 13.4972 16.3547 13.2269 17 12.7305V13.5H18.5V6H17ZM14.75 12C14.305 12 13.87 11.868 13.5 11.6208C13.13 11.3736 12.8416 11.0222 12.6713 10.611C12.501 10.1999 12.4564 9.7475 12.5432 9.31105C12.63 8.87459 12.8443 8.47368 13.159 8.15901C13.4737 7.84434 13.8746 7.63005 14.311 7.54323C14.7475 7.45642 15.1999 7.50097 15.611 7.67127C16.0222 7.84157 16.3736 8.12996 16.6208 8.49997C16.868 8.86998 17 9.30499 17 9.75C17 10.3467 16.7629 10.919 16.341 11.341C15.919 11.7629 15.3467 12 14.75 12Z" fill="#F9FAFB"/>
<path d="M9.5 13.5H11.177L5.8385 2.823L0.5 13.5H2.177L3.677 10.5H8L9.5 13.5ZM4.427 9L5.8385 6.177L7.25 9H4.427Z" fill="#F9FAFB"/>
</g>
<defs>
<clipPath id="clip0_11109_1596">
<rect width="18" height="18" fill="white" transform="translate(0.5)"/>
</clipPath>
</defs>
</svg>
