<svg width="20" height="20" viewBox="0 0 20 20" fill="none" xmlns="http://www.w3.org/2000/svg">
<g clip-path="url(#clip0_1320_32962)">
<path d="M5.83342 10H14.1667V11.6667H5.83342V10ZM5.83342 15H11.6667V13.3333H5.83342V15ZM18.3334 6.32167V20H1.66675V2.5C1.66675 1.83696 1.93014 1.20107 2.39898 0.732233C2.86782 0.263392 3.50371 0 4.16675 0L12.0117 0L18.3334 6.32167ZM12.5001 5.83333H15.4884L12.5001 2.845V5.83333ZM16.6667 18.3333V7.5H10.8334V1.66667H4.16675C3.94573 1.66667 3.73377 1.75446 3.57749 1.91074C3.42121 2.06702 3.33341 2.27899 3.33341 2.5V18.3333H16.6667Z" fill="#9477B6"/>
</g>
<defs>
<clipPath id="clip0_1320_32962">
<rect width="20" height="20" fill="white"/>
</clipPath>
</defs>
</svg>
