<svg width="16" height="16" viewBox="0 0 16 16" fill="none" xmlns="http://www.w3.org/2000/svg">
<g clip-path="url(#clip0_8211_5788)">
<path d="M14.6667 6.65267V10.6667H10.6667V14.6667H1.33333V2C1.33333 1.82319 1.40357 1.65362 1.5286 1.5286C1.65362 1.40357 1.82319 1.33333 2 1.33333H10.7653L11.5727 0.430667C11.7163 0.272035 11.875 0.127796 12.0467 0L2 0C1.46957 0 0.960859 0.210714 0.585786 0.585786C0.210714 0.960859 0 1.46957 0 2L0 16H12.276L16 12.276V5.31933L14.6667 6.65267ZM12 14.3907V12H14.3907L12 14.3907Z" fill="#374957"/>
<path d="M8.48601 7.87974L13.56 2.20841C13.6171 2.14461 13.6867 2.09313 13.7644 2.05711C13.8421 2.0211 13.9263 2.0013 14.0119 1.99893C14.0975 1.99656 14.1827 2.01166 14.2623 2.04332C14.3418 2.07498 14.4141 2.12254 14.4747 2.18307C14.5332 2.24147 14.5796 2.31083 14.6113 2.38719C14.643 2.46355 14.6593 2.5454 14.6593 2.62807C14.6593 2.71074 14.643 2.7926 14.6113 2.86896C14.5796 2.94532 14.5332 3.01468 14.4747 3.07307L9.12001 8.42841C9.4325 8.77194 9.66919 9.17739 9.81468 9.61841L15.4147 4.01841C15.7822 3.65009 15.9886 3.15104 15.9886 2.63074C15.9886 2.11044 15.7822 1.61139 15.4147 1.24307C15.226 1.05419 15.0008 0.905801 14.7528 0.806979C14.5048 0.708157 14.2393 0.660985 13.9724 0.668349C13.7055 0.675713 13.443 0.737459 13.2008 0.849807C12.9587 0.962156 12.742 1.12274 12.564 1.32174L7.14001 7.38374C7.61953 7.44874 8.07898 7.61804 8.48601 7.87974Z" fill="#374957"/>
<path d="M6.66676 8.66687C4.0001 8.66687 3.33344 12.6669 3.33344 12.6669H6.66676C7.19719 12.6669 7.7059 12.4562 8.08097 12.0811C8.45605 11.706 8.66676 11.1973 8.66676 10.6669C8.66676 10.1364 8.45605 9.62773 8.08097 9.25266C7.7059 8.87758 7.19719 8.66687 6.66676 8.66687Z" fill="#374957"/>
</g>
<defs>
<clipPath id="clip0_8211_5788">
<rect width="16" height="16" fill="white"/>
</clipPath>
</defs>
</svg>
