<svg width="18" height="18" viewBox="0 0 18 18" fill="none" xmlns="http://www.w3.org/2000/svg">
<g clip-path="url(#clip0_5771_7748)">
<path d="M1.50488 17.9994H0.00488281V11.9994C0.00627092 10.2105 0.717155 8.49525 1.98159 7.22983C3.24602 5.96442 4.96076 5.2522 6.74963 5.24942L10.3819 5.13392V0.323425L17.3471 7.29317C17.7689 7.7151 18.0059 8.2873 18.0059 8.88391C18.0059 9.48053 17.7689 10.0527 17.3471 10.4747L10.3834 17.4444V12.6339L6.74963 12.7494C5.35852 12.752 4.0252 13.3061 3.04203 14.2903C2.05886 15.2744 1.50607 16.6083 1.50488 17.9994ZM6.75488 11.2494L11.8864 11.1339V13.8234L16.2919 9.41416C16.4325 9.27352 16.5115 9.08279 16.5115 8.88391C16.5115 8.68504 16.4325 8.49431 16.2919 8.35367L11.8826 3.94442V6.63392L6.74963 6.74942C5.35761 6.75061 4.02295 7.30411 3.03864 8.28842C2.05433 9.27273 1.50082 10.6074 1.49963 11.9994V13.7612C2.13122 12.9766 2.93074 12.3436 3.83932 11.9089C4.74791 11.4742 5.74242 11.2489 6.74963 11.2494H6.75488Z" fill="#F9FAFB"/>
</g>
<defs>
<clipPath id="clip0_5771_7748">
<rect width="18" height="18" fill="white"/>
</clipPath>
</defs>
</svg>
