<svg width="16" height="16" viewBox="0 0 16 16" fill="none" xmlns="http://www.w3.org/2000/svg">
<g clip-path="url(#clip0_686_6984)">
<path d="M15.8805 7.45406C15.2364 6.0572 14.293 4.81908 13.1172 3.82739L15.1385 1.80606L14.1952 0.862061L11.9999 3.05539C10.7848 2.35254 9.40353 1.98812 7.99985 2.00006C2.99985 2.00006 0.70452 6.17406 0.119186 7.45406C0.040612 7.6256 -6.10352e-05 7.81205 -6.10352e-05 8.00073C-6.10352e-05 8.1894 0.040612 8.37586 0.119186 8.54739C0.763277 9.94425 1.70667 11.1824 2.88252 12.1741L0.861853 14.1954L1.80452 15.1381L3.99985 12.9447C5.21494 13.6476 6.59618 14.012 7.99985 14.0001C12.9999 14.0001 15.2952 9.82606 15.8805 8.54606C15.9589 8.37472 15.9995 8.1885 15.9995 8.00006C15.9995 7.81163 15.9589 7.6254 15.8805 7.45406ZM1.33319 8.00739C1.83319 6.91073 3.79519 3.33339 7.99985 3.33339C9.04625 3.32728 10.0789 3.57139 11.0119 4.04539L9.83519 5.22206C9.19514 4.79713 8.42779 4.60672 7.66334 4.68316C6.89889 4.75959 6.18443 5.09815 5.64119 5.6414C5.09795 6.18464 4.75938 6.8991 4.68295 7.66355C4.60652 8.428 4.79692 9.19535 5.22185 9.83539L3.83585 11.2214C2.76944 10.353 1.91377 9.25411 1.33319 8.00739ZM9.99985 8.00006C9.99985 8.53049 9.78914 9.0392 9.41407 9.41427C9.039 9.78935 8.53029 10.0001 7.99985 10.0001C7.70286 9.99891 7.40999 9.93054 7.14319 9.80006L9.79985 7.14339C9.93033 7.41019 9.9987 7.70307 9.99985 8.00006ZM5.99985 8.00006C5.99985 7.46963 6.21057 6.96092 6.58564 6.58585C6.96071 6.21077 7.46942 6.00006 7.99985 6.00006C8.29685 6.00121 8.58972 6.06959 8.85652 6.20006L6.19985 8.85673C6.06938 8.58993 6.001 8.29705 5.99985 8.00006ZM7.99985 12.6667C6.95346 12.6728 5.92076 12.4287 4.98785 11.9547L6.16452 10.7781C6.80457 11.203 7.57192 11.3934 8.33637 11.317C9.10081 11.2405 9.81528 10.902 10.3585 10.3587C10.9018 9.81548 11.2403 9.10102 11.3168 8.33657C11.3932 7.57212 11.2028 6.80477 10.7779 6.16473L12.1632 4.77939C13.2317 5.6486 14.0879 6.7501 14.6665 8.00006C14.1572 9.10473 12.1945 12.6667 7.99985 12.6667Z" fill="#667085"/>
</g>
<defs>
<clipPath id="clip0_686_6984">
<rect width="16" height="16" fill="white"/>
</clipPath>
</defs>
</svg>
