<svg width="24" height="25" viewBox="0 0 24 25" fill="none" xmlns="http://www.w3.org/2000/svg">
<g clip-path="url(#clip0_543_18655)">
<path d="M12.0001 2.50375C13.3266 2.5081 14.6391 2.77549 15.8616 3.29044C17.0841 3.80538 18.1923 4.55767 19.1221 5.50375H15.0001V7.50375H20.1431C20.6355 7.50322 21.1075 7.3074 21.4556 6.95926C21.8038 6.61112 21.9996 6.1391 22.0001 5.64675V0.50375H20.0001V3.58175C18.2776 2.03061 16.1421 1.01241 13.8525 0.650558C11.563 0.288712 9.21756 0.598757 7.10065 1.54311C4.98373 2.48747 3.18618 4.02559 1.92588 5.97104C0.665581 7.9165 -0.0033621 10.1857 0.000135718 12.5038H2.00014C2.00305 9.85248 3.05755 7.31063 4.93228 5.4359C6.80702 3.56117 9.34886 2.50666 12.0001 2.50375Z" fill="#374957"/>
<path d="M22.0001 12.5037C22.003 14.489 21.414 16.4301 20.3084 18.0791C19.2028 19.7282 17.6308 21.0102 15.7931 21.7615C13.9554 22.5128 11.9355 22.6993 9.99129 22.2971C8.04711 21.8949 6.26693 20.9224 4.87812 19.5037H9.00012V17.5037H3.85712C3.36478 17.5042 2.89275 17.7 2.54461 18.0481C2.19647 18.3963 2.00065 18.8683 2.00012 19.3607V24.5037H4.00012V21.4257C5.72265 22.9768 7.85813 23.995 10.1477 24.3569C12.4373 24.7187 14.7827 24.4087 16.8996 23.4643C19.0165 22.5199 20.8141 20.9818 22.0744 19.0364C23.3347 17.0909 24.0036 14.8217 24.0001 12.5037H22.0001Z" fill="#374957"/>
</g>
<defs>
<clipPath id="clip0_543_18655">
<rect width="24" height="24" fill="white" transform="translate(0 0.503662)"/>
</clipPath>
</defs>
</svg>
