<svg width="24" height="25" viewBox="0 0 24 25" fill="none" xmlns="http://www.w3.org/2000/svg">
<g clip-path="url(#clip0_543_20162)">
<path d="M12.0322 19.5037C12.4263 19.5043 12.8166 19.4271 13.1808 19.2764C13.545 19.1258 13.8758 18.9046 14.1542 18.6257L18.0732 14.7037L16.6592 13.2937L13.0262 16.9277L13.0002 0.503662H11.0002L11.0262 16.9117L7.40619 13.2917L5.99219 14.7037L9.91119 18.6227C10.1893 18.902 10.5198 19.1236 10.8838 19.2748C11.2478 19.426 11.638 19.5038 12.0322 19.5037Z" fill="#374957"/>
<path d="M22 16.504V21.504C22 21.7692 21.8946 22.0235 21.7071 22.2111C21.5196 22.3986 21.2652 22.504 21 22.504H3C2.73478 22.504 2.48043 22.3986 2.29289 22.2111C2.10536 22.0235 2 21.7692 2 21.504V16.504H0V21.504C0 22.2996 0.31607 23.0627 0.87868 23.6253C1.44129 24.1879 2.20435 24.504 3 24.504H21C21.7956 24.504 22.5587 24.1879 23.1213 23.6253C23.6839 23.0627 24 22.2996 24 21.504V16.504H22Z" fill="#374957"/>
</g>
<defs>
<clipPath id="clip0_543_20162">
<rect width="24" height="24" fill="white" transform="translate(0 0.503662)"/>
</clipPath>
</defs>
</svg>
