<svg width="24" height="25" viewBox="0 0 24 25" fill="none" xmlns="http://www.w3.org/2000/svg">
<g clip-path="url(#clip0_543_20048)">
<path d="M22.922 2.20367C22.5852 1.9214 22.1903 1.71696 21.7654 1.60494C21.3405 1.49293 20.8961 1.4761 20.464 1.55567L14.284 2.67867C13.3997 2.83812 12.5949 3.29121 12 3.96467C11.4055 3.2901 10.6007 2.83592 9.716 2.67567L3.536 1.55267C3.10377 1.47418 2.65957 1.49157 2.2348 1.60362C1.81004 1.71567 1.41506 1.91964 1.07778 2.20112C0.740505 2.4826 0.469162 2.83471 0.282926 3.23258C0.0966906 3.63045 0.000106745 4.06437 0 4.50367L0 21.3377L12 23.5207L24 21.3377V4.50367C24 4.06469 23.9035 3.63108 23.7172 3.23359C23.5309 2.83611 23.2594 2.48448 22.922 2.20367ZM11 21.3037L2 19.6697V4.50367C2.00012 4.35726 2.0324 4.21266 2.09454 4.08009C2.15668 3.94752 2.24717 3.83021 2.35962 3.73645C2.47208 3.6427 2.60374 3.57477 2.74533 3.53749C2.88691 3.5002 3.03495 3.49446 3.179 3.52067L9.358 4.64367C9.81882 4.72751 10.2356 4.97043 10.5357 5.33007C10.8357 5.68972 11.0001 6.14328 11 6.61167V21.3037ZM22 19.6677L13 21.3037V6.61167C12.9999 6.14328 13.1643 5.68972 13.4643 5.33007C13.7644 4.97043 14.1812 4.72751 14.642 4.64367L20.821 3.52067C20.965 3.49446 21.1131 3.5002 21.2547 3.53749C21.3963 3.57477 21.5279 3.6427 21.6404 3.73645C21.7528 3.83021 21.8433 3.94752 21.9055 4.08009C21.9676 4.21266 21.9999 4.35726 22 4.50367V19.6677Z" fill="#374957"/>
</g>
<defs>
<clipPath id="clip0_543_20048">
<rect width="24" height="24" fill="white" transform="translate(0 0.503662)"/>
</clipPath>
</defs>
</svg>
