<svg width="16" height="16" viewBox="0 0 16 16" fill="none" xmlns="http://www.w3.org/2000/svg">
<g clip-path="url(#clip0_2535_27762)">
<path d="M3.3335 12.6664H6.27616L15.3715 3.5711C15.7611 3.18054 15.9799 2.65141 15.9799 2.09976C15.9799 1.54811 15.7611 1.01898 15.3715 0.62843C14.9753 0.249693 14.4483 0.0383301 13.9002 0.0383301C13.352 0.0383301 12.825 0.249693 12.4288 0.62843L3.3335 9.72376V12.6664ZM4.66683 10.2758L13.3715 1.5711C13.5139 1.43507 13.7032 1.35916 13.9002 1.35916C14.0971 1.35916 14.2864 1.43507 14.4288 1.5711C14.5688 1.71144 14.6474 1.90156 14.6474 2.09976C14.6474 2.29797 14.5688 2.48809 14.4288 2.62843L5.72416 11.3331H4.66683V10.2758Z" fill="#667085"/>
<path d="M15.7473 5.08133L14.6667 6.162V10.6667H10.6667V14.6667H1.33333V2C1.33333 1.82319 1.40357 1.65362 1.5286 1.5286C1.65362 1.40357 1.82319 1.33333 2 1.33333H9.83867L10.9193 0.252667C11.0167 0.162416 11.1193 0.0780441 11.2267 0L2 0C1.46957 0 0.960859 0.210714 0.585786 0.585786C0.210714 0.960859 0 1.46957 0 2L0 16H12.276L16 12.276V4.774C15.9218 4.88124 15.8374 4.98386 15.7473 5.08133ZM12 14.3907V12H14.3907L12 14.3907Z" fill="#667085"/>
</g>
<defs>
<clipPath id="clip0_2535_27762">
<rect width="16" height="16" fill="white"/>
</clipPath>
</defs>
</svg>
