<svg width="24" height="25" viewBox="0 0 24 25" fill="none" xmlns="http://www.w3.org/2000/svg">
<g clip-path="url(#clip0_543_20287)">
<path d="M11.9579 24.5115L11.2608 23.9139C10.2998 23.1093 1.90887 15.8626 1.90887 10.5617C1.90887 5.01184 6.40798 0.512726 11.9579 0.512726C17.5078 0.512726 22.0069 5.01184 22.0069 10.5617C22.0069 15.8626 13.616 23.1093 12.659 23.9179L11.9579 24.5115ZM11.9579 2.68562C7.61009 2.69054 4.08673 6.2139 4.08181 10.5617C4.08181 13.8918 9.24425 19.2115 11.9579 21.6464C14.6716 19.2106 19.834 13.8878 19.834 10.5617C19.829 6.2139 16.3057 2.69059 11.9579 2.68562Z" fill="#374957"/>
<path d="M11.958 14.5448C9.75808 14.5448 7.97467 12.7613 7.97467 10.5614C7.97467 8.36147 9.75808 6.57806 11.958 6.57806C14.158 6.57806 15.9414 8.36147 15.9414 10.5614C15.9414 12.7613 14.158 14.5448 11.958 14.5448ZM11.958 8.56969C10.858 8.56969 9.96634 9.46139 9.96634 10.5614C9.96634 11.6613 10.858 12.553 11.958 12.553C13.058 12.553 13.9497 11.6613 13.9497 10.5614C13.9497 9.46139 13.058 8.56969 11.958 8.56969Z" fill="#374957"/>
</g>
<defs>
<clipPath id="clip0_543_20287">
<rect width="24" height="24" fill="white" transform="translate(0 0.503662)"/>
</clipPath>
</defs>
</svg>
