<svg width="18" height="18" viewBox="0 0 18 18" fill="none" xmlns="http://www.w3.org/2000/svg">
<g clip-path="url(#clip0_6302_817)">
<path d="M16.5 11.9995V15.7495C16.5 15.9484 16.421 16.1392 16.2803 16.2798C16.1397 16.4205 15.9489 16.4995 15.75 16.4995H2.25C2.05109 16.4995 1.86032 16.4205 1.71967 16.2798C1.57902 16.1392 1.5 15.9484 1.5 15.7495V11.9995H0V15.7495C0 16.3462 0.237053 16.9185 0.65901 17.3405C1.08097 17.7624 1.65326 17.9995 2.25 17.9995H15.75C16.3467 17.9995 16.919 17.7624 17.341 17.3405C17.7629 16.9185 18 16.3462 18 15.7495V11.9995H16.5Z" fill="#F9FAFB"/>
<path d="M8.97533 -0.00011354C8.67997 -0.000927743 8.38736 0.0565542 8.11426 0.169038C7.84116 0.281521 7.59294 0.446795 7.38383 0.655386L4.44458 3.59464L5.50508 4.65514L8.23058 1.93039L8.25008 14.2499H9.75008L9.73058 1.94089L12.4448 4.65514L13.5053 3.59464L10.5661 0.655386C10.3571 0.446818 10.109 0.281552 9.83605 0.169067C9.56307 0.0565815 9.27057 -0.000910955 8.97533 -0.00011354Z" fill="#F9FAFB"/>
</g>
<defs>
<clipPath id="clip0_6302_817">
<rect width="18" height="18" fill="white"/>
</clipPath>
</defs>
</svg>
