<svg width="12" height="16" viewBox="0 0 12 16" fill="none" xmlns="http://www.w3.org/2000/svg">
<path d="M10.6667 1.33333V0H9.33333V1.33333H8V0H6.66667V1.33333H5.33333V0H4V1.33333H2.66667V0H1.33333V1.33333H0V14C0 14.5304 0.210714 15.0391 0.585787 15.4142C0.960859 15.7893 1.46957 16 2 16H10C10.5304 16 11.0391 15.7893 11.4142 15.4142C11.7893 15.0391 12 14.5304 12 14V1.33333H10.6667ZM10.6667 14C10.6667 14.1768 10.5964 14.3464 10.4714 14.4714C10.3464 14.5964 10.1768 14.6667 10 14.6667H2C1.82319 14.6667 1.65362 14.5964 1.5286 14.4714C1.40357 14.3464 1.33333 14.1768 1.33333 14V2.66667H10.6667V14ZM9.33333 6H2.66667V4.66667H9.33333V6ZM9.33333 8.66667H2.66667V7.33333H9.33333V8.66667ZM6.66667 11.3333H2.66667V10H6.66667V11.3333Z" fill="#667085"/>
</svg>
