<svg width="18" height="18" viewBox="0 0 18 18" fill="none" xmlns="http://www.w3.org/2000/svg">
<g clip-path="url(#clip0_10322_23895)">
<path d="M18.0002 3H5.25024V4.5H18.0002V3Z" fill="#374957"/>
<path d="M18.0002 8.25H5.25024V9.75001H18.0002V8.25Z" fill="#374957"/>
<path d="M18.0002 13.5H5.25024V15H18.0002V13.5Z" fill="#374957"/>
<path d="M1.5 5.24999C2.32843 5.24999 3 4.57842 3 3.75C3 2.92157 2.32843 2.25 1.5 2.25C0.671573 2.25 0 2.92157 0 3.75C0 4.57842 0.671573 5.24999 1.5 5.24999Z" fill="#374957"/>
<path d="M1.5 10.5C2.32843 10.5 3 9.82842 3 9C3 8.17157 2.32843 7.5 1.5 7.5C0.671573 7.5 0 8.17157 0 9C0 9.82842 0.671573 10.5 1.5 10.5Z" fill="#374957"/>
<path d="M1.5 15.75C2.32843 15.75 3 15.0784 3 14.25C3 13.4216 2.32843 12.75 1.5 12.75C0.671573 12.75 0 13.4216 0 14.25C0 15.0784 0.671573 15.75 1.5 15.75Z" fill="#374957"/>
</g>
<defs>
<clipPath id="clip0_10322_23895">
<rect width="18" height="18" fill="white"/>
</clipPath>
</defs>
</svg>
