<svg width="20" height="20" viewBox="0 0 20 20" fill="none" xmlns="http://www.w3.org/2000/svg">
<path d="M11.6667 8.33325C11.6667 9.18242 11.41 9.96992 10.9733 10.6283L8.5775 8.23242C8.42083 8.07575 8.33333 7.86408 8.33333 7.64325V4.25075C10.235 4.63658 11.6667 6.31742 11.6667 8.33325ZM6.66667 7.98825V4.25075C4.54167 4.68242 3.00333 6.73075 3.39417 9.05658C3.665 10.6683 4.91083 12.0091 6.50167 12.3833C7.72667 12.6708 8.885 12.4108 9.795 11.8074L7.15417 9.16658C6.84167 8.85408 6.66667 8.42992 6.66667 7.98825ZM15.8333 4.16658H14.1667C13.7058 4.16658 13.3333 4.53992 13.3333 4.99992C13.3333 5.45992 13.7058 5.83325 14.1667 5.83325H15.8333C16.2942 5.83325 16.6667 5.45992 16.6667 4.99992C16.6667 4.53992 16.2942 4.16658 15.8333 4.16658ZM15.8333 7.49992H14.1667C13.7058 7.49992 13.3333 7.87325 13.3333 8.33325C13.3333 8.79325 13.7058 9.16658 14.1667 9.16658H15.8333C16.2942 9.16658 16.6667 8.79325 16.6667 8.33325C16.6667 7.87325 16.2942 7.49992 15.8333 7.49992ZM15.8333 10.8333H14.1667C13.7058 10.8333 13.3333 11.2066 13.3333 11.6666C13.3333 12.1266 13.7058 12.4999 14.1667 12.4999H15.8333C16.2942 12.4999 16.6667 12.1266 16.6667 11.6666C16.6667 11.2066 16.2942 10.8333 15.8333 10.8333ZM20 4.99992V11.6666C20 13.9641 18.1308 15.8333 15.8333 15.8333H10.8333V17.4999H14.1667C14.6275 17.4999 15 17.8733 15 18.3333C15 18.7933 14.6275 19.1666 14.1667 19.1666H5.83333C5.3725 19.1666 5 18.7933 5 18.3333C5 17.8733 5.3725 17.4999 5.83333 17.4999H9.16667V15.8333H4.16667C1.86917 15.8333 0 13.9641 0 11.6666V4.99992C0 2.70242 1.86917 0.833252 4.16667 0.833252H15.8333C18.1308 0.833252 20 2.70242 20 4.99992ZM18.3333 4.99992C18.3333 3.62158 17.2117 2.49992 15.8333 2.49992H4.16667C2.78833 2.49992 1.66667 3.62158 1.66667 4.99992V11.6666C1.66667 13.0449 2.78833 14.1666 4.16667 14.1666H15.8333C17.2117 14.1666 18.3333 13.0449 18.3333 11.6666V4.99992Z" fill="#704A9E"/>
</svg>
