<svg width="20" height="20" viewBox="0 0 20 20" fill="none" xmlns="http://www.w3.org/2000/svg">
<g clip-path="url(#clip0_6118_7507)">
<path d="M15.265 12.2648L19.39 8.13978C19.5835 7.94632 19.737 7.71663 19.8418 7.46383C19.9465 7.21103 20.0004 6.94008 20.0004 6.66645C20.0004 6.39282 19.9465 6.12186 19.8418 5.86906C19.737 5.61627 19.5835 5.38658 19.39 5.19311L15.265 1.06812L14.0833 2.24978L17.6667 5.83312H2.58333C1.91508 5.81766 1.26795 6.06773 0.783732 6.52852C0.299511 6.98931 0.0176844 7.62325 0 8.29145L0 17.5414C0.0176844 18.2096 0.299511 18.8436 0.783732 19.3044C1.26795 19.7652 1.91508 20.0152 2.58333 19.9998H18.3333V18.3331H2.58333C2.35712 18.3483 2.13403 18.2737 1.96244 18.1255C1.79085 17.9773 1.68458 17.7675 1.66667 17.5414V8.29145C1.68458 8.06543 1.79085 7.85558 1.96244 7.70739C2.13403 7.55919 2.35712 7.4846 2.58333 7.49978H17.6725L14.0892 11.0831L15.265 12.2648Z" fill="#9477B6"/>
</g>
<defs>
<clipPath id="clip0_6118_7507">
<rect width="20" height="20" fill="white"/>
</clipPath>
</defs>
</svg>
