<svg width="19" height="18" viewBox="0 0 19 18" fill="none" xmlns="http://www.w3.org/2000/svg">
<g clip-path="url(#clip0_11109_1650)">
<path d="M18.4998 18H9.5133C7.75754 17.9992 6.04037 17.4848 4.57329 16.5202C3.10621 15.5557 1.95329 14.1831 1.25655 12.5715C0.559816 10.9599 0.349682 9.17968 0.652035 7.45015C0.954388 5.72061 1.75602 4.11729 2.9582 2.83766C4.16038 1.55802 5.71059 0.657969 7.4179 0.248354C9.12521 -0.161261 10.9151 -0.0625467 12.567 0.532339C14.2189 1.12722 15.6607 2.1923 16.7149 3.59638C17.769 5.00045 18.3895 6.68221 18.4998 8.4345V8.48175V18ZM9.5133 1.5C7.52418 1.5 5.61652 2.29018 4.21 3.6967C2.80348 5.10322 2.0133 7.01088 2.0133 9C2.0133 10.9891 2.80348 12.8968 4.21 14.3033C5.61652 15.7098 7.52418 16.5 9.5133 16.5H16.9998V8.50575C16.8712 6.60699 16.0268 4.82777 14.6373 3.52742C13.2477 2.22707 11.4164 1.50249 9.5133 1.5Z" fill="#F9FAFB"/>
<path d="M10.25 5.25H5.75V6.75H10.25V5.25Z" fill="#F9FAFB"/>
<path d="M13.25 8.25024H5.75V9.75025H13.25V8.25024Z" fill="#F9FAFB"/>
<path d="M13.25 11.25H5.75V12.75H13.25V11.25Z" fill="#F9FAFB"/>
</g>
<defs>
<clipPath id="clip0_11109_1650">
<rect width="18" height="18" fill="white" transform="translate(0.5)"/>
</clipPath>
</defs>
</svg>
