<svg width="24" height="25" viewBox="0 0 24 25" fill="none" xmlns="http://www.w3.org/2000/svg">
<g clip-path="url(#clip0_543_18329)">
<path d="M15 3.50366C15 2.70801 14.6839 1.94495 14.1213 1.38234C13.5587 0.819733 12.7956 0.503662 12 0.503662L0 0.503662V24.5037H2V13.5037H10V14.5037C10 15.2993 10.3161 16.0624 10.8787 16.625C11.4413 17.1876 12.2044 17.5037 13 17.5037H24V4.50366H15V3.50366ZM2 2.50366H12C12.2652 2.50366 12.5196 2.60902 12.7071 2.79656C12.8946 2.98409 13 3.23845 13 3.50366V11.5037H2V2.50366ZM22 6.50366V15.5037H13C12.7348 15.5037 12.4804 15.3983 12.2929 15.2108C12.1054 15.0232 12 14.7689 12 14.5037V13.5037H15V6.50366H22Z" fill="#374957"/>
</g>
<defs>
<clipPath id="clip0_543_18329">
<rect width="24" height="24" fill="white" transform="translate(0 0.503662)"/>
</clipPath>
</defs>
</svg>
