<svg width="24" height="25" viewBox="0 0 24 25" fill="none" xmlns="http://www.w3.org/2000/svg">
<g clip-path="url(#clip0_543_20382)">
<path d="M23.9998 23.0904L17.7378 16.8284C19.3644 14.839 20.1642 12.3005 19.9716 9.73794C19.7791 7.17541 18.609 4.78491 16.7034 3.0609C14.7977 1.33689 12.3024 0.411267 9.73342 0.475499C7.16447 0.539731 4.71848 1.5889 2.9014 3.40599C1.08431 5.22308 0.0351378 7.66907 -0.029094 10.238C-0.0933258 12.807 0.832292 15.3023 2.5563 17.208C4.28031 19.1136 6.67081 20.2837 9.23334 20.4762C11.7959 20.6688 14.3344 19.869 16.3238 18.2424L22.5858 24.5044L23.9998 23.0904ZM9.99978 18.5044C8.41753 18.5044 6.87081 18.0352 5.55522 17.1561C4.23963 16.2771 3.21425 15.0277 2.60875 13.5658C2.00324 12.104 1.84482 10.4955 2.1535 8.94365C2.46218 7.3918 3.22411 5.96634 4.34293 4.84752C5.46175 3.7287 6.88721 2.96677 8.43906 2.65809C9.99091 2.34941 11.5994 2.50784 13.0612 3.11334C14.5231 3.71884 15.7725 4.74422 16.6515 6.05981C17.5306 7.37541 17.9998 8.92212 17.9998 10.5044C17.9974 12.6254 17.1538 14.6588 15.654 16.1586C14.1542 17.6584 12.1208 18.502 9.99978 18.5044Z" fill="#374957"/>
</g>
<defs>
<clipPath id="clip0_543_20382">
<rect width="24" height="24" fill="white" transform="translate(0 0.503662)"/>
</clipPath>
</defs>
</svg>
