<svg width="16" height="16" viewBox="0 0 16 16" fill="none" xmlns="http://www.w3.org/2000/svg">
<g clip-path="url(#clip0_6017_12838)">
<path d="M16 6C16 5.46957 15.7893 4.96086 15.4142 4.58579C15.0391 4.21071 14.5304 4 14 4H12.6667V0H3.33333V4H2C1.46957 4 0.960859 4.21071 0.585786 4.58579C0.210714 4.96086 0 5.46957 0 6L0 14H3.33333V16H12.6667V14H16V6ZM4.66667 1.33333H11.3333V4H4.66667V1.33333ZM11.3333 14.6667H4.66667V10.6667H11.3333V14.6667ZM14.6667 12.6667H12.6667V9.33333H3.33333V12.6667H1.33333V6C1.33333 5.82319 1.40357 5.65362 1.5286 5.5286C1.65362 5.40357 1.82319 5.33333 2 5.33333H14C14.1768 5.33333 14.3464 5.40357 14.4714 5.5286C14.5964 5.65362 14.6667 5.82319 14.6667 6V12.6667Z" fill="#667085"/>
<path d="M12.6667 6.66602H10V7.99936H12.6667V6.66602Z" fill="#667085"/>
</g>
<defs>
<clipPath id="clip0_6017_12838">
<rect width="16" height="16" fill="white"/>
</clipPath>
</defs>
</svg>
