<svg width="24" height="25" viewBox="0 0 24 25" fill="none" xmlns="http://www.w3.org/2000/svg">
<g clip-path="url(#clip0_543_18295)">
<path d="M11.9998 4.50366C13.1044 4.50366 13.9998 3.60823 13.9998 2.50366C13.9998 1.39909 13.1044 0.503662 11.9998 0.503662C10.8952 0.503662 9.99982 1.39909 9.99982 2.50366C9.99982 3.60823 10.8952 4.50366 11.9998 4.50366Z" fill="#374957"/>
<path d="M11.9998 14.504C13.1044 14.504 13.9998 13.6085 13.9998 12.504C13.9998 11.3994 13.1044 10.504 11.9998 10.504C10.8952 10.504 9.99982 11.3994 9.99982 12.504C9.99982 13.6085 10.8952 14.504 11.9998 14.504Z" fill="#374957"/>
<path d="M11.9998 24.5034C13.1044 24.5034 13.9998 23.6079 13.9998 22.5034C13.9998 21.3988 13.1044 20.5034 11.9998 20.5034C10.8952 20.5034 9.99982 21.3988 9.99982 22.5034C9.99982 23.6079 10.8952 24.5034 11.9998 24.5034Z" fill="#374957"/>
</g>
<defs>
<clipPath id="clip0_543_18295">
<rect width="24" height="24" fill="white" transform="translate(0 0.503662)"/>
</clipPath>
</defs>
</svg>
