<svg width="24" height="25" viewBox="0 0 24 25" fill="none" xmlns="http://www.w3.org/2000/svg">
<g clip-path="url(#clip0_543_20102)">
<path d="M17.7915 7.71581C17.3472 5.80509 16.2162 4.12425 14.6137 2.99279C13.0111 1.86133 11.0487 1.35812 9.09947 1.57882C7.15021 1.79952 5.34999 2.72874 4.04099 4.18985C2.73199 5.65096 2.00547 7.5421 1.99953 9.50381C1.99807 10.7823 2.30691 12.042 2.89953 13.1748C1.82066 13.7529 0.965933 14.675 0.471153 15.7946C-0.023628 16.9142 -0.130082 18.167 0.168705 19.3539C0.467492 20.5409 1.15438 21.594 2.12024 22.3459C3.0861 23.0978 4.27552 23.5053 5.49953 23.5038H11.9995V21.5038H5.49953C4.64796 21.5064 3.82482 21.1975 3.18505 20.6355C2.54528 20.0735 2.13302 19.297 2.02585 18.4522C1.91868 17.6073 2.124 16.7525 2.60317 16.0485C3.08233 15.3445 3.80229 14.84 4.62753 14.6298L6.06453 14.2588L5.18153 13.0658C4.41307 12.0373 3.99838 10.7877 3.99953 9.50381C4.01094 7.98979 4.59432 6.53607 5.63267 5.43416C6.67103 4.33226 8.08758 3.66366 9.59825 3.56244C11.1089 3.46122 12.602 3.93487 13.7781 4.88841C14.9542 5.84194 15.7263 7.20485 15.9395 8.70381L16.0395 9.46181L16.7965 9.56181C18.1325 9.73691 19.3704 10.3573 20.3103 11.3228C21.2502 12.2883 21.837 13.5425 21.9761 14.8827C22.1152 16.2229 21.7984 17.5709 21.0768 18.7088C20.3552 19.8467 19.2711 20.7081 17.9995 21.1538V23.2408C19.7339 22.7948 21.2681 21.779 22.3559 20.3565C23.4437 18.9339 24.022 17.1872 23.998 15.3965C23.974 13.6059 23.3491 11.8753 22.2236 10.4824C21.0981 9.08954 19.5372 8.11521 17.7915 7.71581Z" fill="#374957"/>
<path d="M18.293 18.2109L19.707 16.7969L16.414 13.5039C16.0389 13.129 15.5303 12.9183 15 12.9183C14.4696 12.9183 13.961 13.129 13.586 13.5039L10.293 16.7969L11.707 18.2109L14 15.9179V24.5039H16V15.9179L18.293 18.2109Z" fill="#374957"/>
</g>
<defs>
<clipPath id="clip0_543_20102">
<rect width="24" height="24" fill="white" transform="translate(0 0.503662)"/>
</clipPath>
</defs>
</svg>
