<svg width="24" height="25" viewBox="0 0 24 25" fill="none" xmlns="http://www.w3.org/2000/svg">
<g clip-path="url(#clip0_543_20485)">
<path d="M9 12.5036C10.1867 12.5036 11.3467 12.1517 12.3334 11.4924C13.3201 10.8331 14.0892 9.89606 14.5433 8.7997C14.9974 7.70334 15.1162 6.49694 14.8847 5.33306C14.6532 4.16917 14.0818 3.10007 13.2426 2.26096C12.4035 1.42184 11.3344 0.8504 10.1705 0.618888C9.00666 0.387377 7.80026 0.506197 6.7039 0.960323C5.60754 1.41445 4.67047 2.18348 4.01118 3.17018C3.35189 4.15687 3 5.31691 3 6.5036C3.00159 8.09441 3.63424 9.61961 4.75911 10.7445C5.88399 11.8694 7.40919 12.502 9 12.5036ZM9 2.5036C9.79113 2.5036 10.5645 2.7382 11.2223 3.17772C11.8801 3.61725 12.3928 4.24196 12.6955 4.97287C12.9983 5.70377 13.0775 6.50804 12.9231 7.28396C12.7688 8.05989 12.3878 8.77262 11.8284 9.33203C11.269 9.89144 10.5563 10.2724 9.78036 10.4267C9.00444 10.5811 8.20017 10.5019 7.46927 10.1991C6.73836 9.89637 6.11365 9.38368 5.67412 8.72588C5.2346 8.06808 5 7.29473 5 6.5036C5 5.44273 5.42143 4.42532 6.17157 3.67517C6.92172 2.92503 7.93913 2.5036 9 2.5036Z" fill="#374957"/>
<path d="M20.9999 10.503V7.50304H18.9999V10.503H15.9999V12.503H18.9999V15.503H20.9999V12.503H23.9999V10.503H20.9999Z" fill="#374957"/>
<path d="M13.043 14.5043H4.957C3.64281 14.5059 2.3829 15.0286 1.45363 15.9579C0.524352 16.8872 0.00158783 18.1471 0 19.4613L0 24.5043H2V19.4613C2.00079 18.6773 2.31259 17.9256 2.86696 17.3712C3.42134 16.8169 4.173 16.5051 4.957 16.5043H13.043C13.827 16.5051 14.5787 16.8169 15.133 17.3712C15.6874 17.9256 15.9992 18.6773 16 19.4613V24.5043H18V19.4613C17.9984 18.1471 17.4756 16.8872 16.5464 15.9579C15.6171 15.0286 14.3572 14.5059 13.043 14.5043Z" fill="#374957"/>
</g>
<defs>
<clipPath id="clip0_543_20485">
<rect width="24" height="24" fill="white" transform="translate(0 0.503662)"/>
</clipPath>
</defs>
</svg>
