<svg width="36" height="36" viewBox="0 0 36 36" fill="none" xmlns="http://www.w3.org/2000/svg">
<g clip-path="url(#clip0_1319_5206)">
<path d="M26.9692 16.5259L22.8442 12.4009L21.6667 13.5825L25.25 17.1659H13.5142V18.8325H25.25L21.6667 22.4159L22.845 23.5942L26.97 19.4692C27.1635 19.2758 27.317 19.0461 27.4217 18.7933C27.5265 18.5405 27.5804 18.2695 27.5804 17.9959C27.5804 17.7222 27.5265 17.4513 27.4217 17.1985C27.317 16.9457 27.1635 16.716 26.97 16.5225L26.9692 16.5259Z" fill="#667085"/>
<path d="M16.73 25.5C16.73 25.721 16.6422 25.933 16.4859 26.0893C16.3296 26.2455 16.1177 26.3333 15.8967 26.3333H10.5C10.279 26.3333 10.067 26.2455 9.91074 26.0893C9.75446 25.933 9.66667 25.721 9.66667 25.5V10.5C9.66667 10.279 9.75446 10.067 9.91074 9.91074C10.067 9.75446 10.279 9.66667 10.5 9.66667H15.8967C16.1177 9.66667 16.3296 9.75446 16.4859 9.91074C16.6422 10.067 16.73 10.279 16.73 10.5V14.9442H18.3967V10.5C18.3967 9.83696 18.1333 9.20107 17.6644 8.73223C17.1956 8.26339 16.5597 8 15.8967 8H10.5C9.83696 8 9.20107 8.26339 8.73223 8.73223C8.26339 9.20107 8 9.83696 8 10.5V25.5C8 26.163 8.26339 26.7989 8.73223 27.2678C9.20107 27.7366 9.83696 28 10.5 28H15.8967C16.5597 28 17.1956 27.7366 17.6644 27.2678C18.1333 26.7989 18.3967 26.163 18.3967 25.5V21.0558H16.73V25.5Z" fill="#667085"/>
</g>
<defs>
<clipPath id="clip0_1319_5206">
<rect width="20" height="20" fill="white" transform="translate(8 8)"/>
</clipPath>
</defs>
</svg>
